<mxfile host="app.diagrams.net" modified="2023-08-11T02:56:48.095Z" agent="Mozilla/5.0 (Windows NT 10.0; Win64; x64) AppleWebKit/537.36 (KHTML, like Gecko) Chrome/115.0.0.0 Safari/537.36 Edg/115.0.1901.200" etag="hASGqZwhTDDdnFouQsQd" version="21.6.8" type="github">
  <diagram id="C5RBs43oDa-KdzZeNtuy" name="Page-1">
    <mxGraphModel dx="994" dy="581" grid="1" gridSize="10" guides="1" tooltips="1" connect="1" arrows="1" fold="1" page="1" pageScale="1" pageWidth="827" pageHeight="1169" math="0" shadow="0">
      <root>
        <mxCell id="WIyWlLk6GJQsqaUBKTNV-0" />
        <mxCell id="WIyWlLk6GJQsqaUBKTNV-1" parent="WIyWlLk6GJQsqaUBKTNV-0" />
        <mxCell id="jApE_V955L-DPxymgC2c-2" value="" style="edgeStyle=orthogonalEdgeStyle;rounded=0;orthogonalLoop=1;jettySize=auto;html=1;" edge="1" parent="WIyWlLk6GJQsqaUBKTNV-1" source="jApE_V955L-DPxymgC2c-0" target="jApE_V955L-DPxymgC2c-1">
          <mxGeometry relative="1" as="geometry" />
        </mxCell>
        <mxCell id="jApE_V955L-DPxymgC2c-0" value="开始" style="ellipse;whiteSpace=wrap;html=1;fillColor=#ffe6cc;strokeColor=#d79b00;" vertex="1" parent="WIyWlLk6GJQsqaUBKTNV-1">
          <mxGeometry x="340" y="70" width="120" height="80" as="geometry" />
        </mxCell>
        <mxCell id="jApE_V955L-DPxymgC2c-5" value="" style="edgeStyle=orthogonalEdgeStyle;rounded=0;orthogonalLoop=1;jettySize=auto;html=1;" edge="1" parent="WIyWlLk6GJQsqaUBKTNV-1" source="jApE_V955L-DPxymgC2c-1" target="jApE_V955L-DPxymgC2c-4">
          <mxGeometry relative="1" as="geometry" />
        </mxCell>
        <mxCell id="jApE_V955L-DPxymgC2c-1" value="获取读请求的相关参数" style="whiteSpace=wrap;html=1;fillColor=#ffe6cc;strokeColor=#d79b00;" vertex="1" parent="WIyWlLk6GJQsqaUBKTNV-1">
          <mxGeometry x="335" y="170" width="130" height="70" as="geometry" />
        </mxCell>
        <mxCell id="jApE_V955L-DPxymgC2c-7" value="" style="edgeStyle=orthogonalEdgeStyle;rounded=0;orthogonalLoop=1;jettySize=auto;html=1;" edge="1" parent="WIyWlLk6GJQsqaUBKTNV-1" source="jApE_V955L-DPxymgC2c-4" target="jApE_V955L-DPxymgC2c-6">
          <mxGeometry relative="1" as="geometry" />
        </mxCell>
        <mxCell id="jApE_V955L-DPxymgC2c-21" style="edgeStyle=orthogonalEdgeStyle;rounded=0;orthogonalLoop=1;jettySize=auto;html=1;exitX=0;exitY=0.5;exitDx=0;exitDy=0;entryX=0.5;entryY=0;entryDx=0;entryDy=0;" edge="1" parent="WIyWlLk6GJQsqaUBKTNV-1" source="jApE_V955L-DPxymgC2c-4" target="jApE_V955L-DPxymgC2c-20">
          <mxGeometry relative="1" as="geometry" />
        </mxCell>
        <mxCell id="jApE_V955L-DPxymgC2c-4" value="判断是否存在锁冲突" style="rhombus;whiteSpace=wrap;html=1;fillColor=#fff2cc;strokeColor=#d6b656;" vertex="1" parent="WIyWlLk6GJQsqaUBKTNV-1">
          <mxGeometry x="325" y="260" width="150" height="75" as="geometry" />
        </mxCell>
        <mxCell id="jApE_V955L-DPxymgC2c-10" value="" style="edgeStyle=orthogonalEdgeStyle;rounded=0;orthogonalLoop=1;jettySize=auto;html=1;" edge="1" parent="WIyWlLk6GJQsqaUBKTNV-1" source="jApE_V955L-DPxymgC2c-6" target="jApE_V955L-DPxymgC2c-9">
          <mxGeometry relative="1" as="geometry" />
        </mxCell>
        <mxCell id="jApE_V955L-DPxymgC2c-16" style="edgeStyle=orthogonalEdgeStyle;rounded=0;orthogonalLoop=1;jettySize=auto;html=1;exitX=1;exitY=0.5;exitDx=0;exitDy=0;entryX=0.5;entryY=0;entryDx=0;entryDy=0;" edge="1" parent="WIyWlLk6GJQsqaUBKTNV-1" source="jApE_V955L-DPxymgC2c-6" target="jApE_V955L-DPxymgC2c-17">
          <mxGeometry relative="1" as="geometry">
            <mxPoint x="650" y="370" as="targetPoint" />
          </mxGeometry>
        </mxCell>
        <mxCell id="jApE_V955L-DPxymgC2c-6" value="查找哈希表中是&lt;br&gt;否有该文件句柄" style="rhombus;whiteSpace=wrap;html=1;fillColor=#fff2cc;strokeColor=#d6b656;" vertex="1" parent="WIyWlLk6GJQsqaUBKTNV-1">
          <mxGeometry x="317.5" y="360" width="165" height="80" as="geometry" />
        </mxCell>
        <mxCell id="jApE_V955L-DPxymgC2c-8" value="no" style="text;html=1;strokeColor=none;fillColor=none;align=center;verticalAlign=middle;whiteSpace=wrap;rounded=0;" vertex="1" parent="WIyWlLk6GJQsqaUBKTNV-1">
          <mxGeometry x="390" y="335" width="60" height="30" as="geometry" />
        </mxCell>
        <mxCell id="jApE_V955L-DPxymgC2c-13" value="" style="edgeStyle=orthogonalEdgeStyle;rounded=0;orthogonalLoop=1;jettySize=auto;html=1;" edge="1" parent="WIyWlLk6GJQsqaUBKTNV-1" source="jApE_V955L-DPxymgC2c-9" target="jApE_V955L-DPxymgC2c-12">
          <mxGeometry relative="1" as="geometry" />
        </mxCell>
        <mxCell id="jApE_V955L-DPxymgC2c-9" value="读取文件内容，填充read_reply" style="whiteSpace=wrap;html=1;fillColor=#ffe6cc;strokeColor=#d79b00;" vertex="1" parent="WIyWlLk6GJQsqaUBKTNV-1">
          <mxGeometry x="340" y="490" width="120" height="60" as="geometry" />
        </mxCell>
        <mxCell id="jApE_V955L-DPxymgC2c-11" value="yes" style="text;html=1;strokeColor=none;fillColor=none;align=center;verticalAlign=middle;whiteSpace=wrap;rounded=0;" vertex="1" parent="WIyWlLk6GJQsqaUBKTNV-1">
          <mxGeometry x="384" y="450" width="60" height="30" as="geometry" />
        </mxCell>
        <mxCell id="jApE_V955L-DPxymgC2c-15" value="" style="edgeStyle=orthogonalEdgeStyle;rounded=0;orthogonalLoop=1;jettySize=auto;html=1;" edge="1" parent="WIyWlLk6GJQsqaUBKTNV-1" source="jApE_V955L-DPxymgC2c-12" target="jApE_V955L-DPxymgC2c-14">
          <mxGeometry relative="1" as="geometry" />
        </mxCell>
        <mxCell id="jApE_V955L-DPxymgC2c-12" value="创建回复体，同时注意四字节对齐" style="whiteSpace=wrap;html=1;fillColor=#ffe6cc;strokeColor=#d79b00;" vertex="1" parent="WIyWlLk6GJQsqaUBKTNV-1">
          <mxGeometry x="340" y="585" width="120" height="60" as="geometry" />
        </mxCell>
        <mxCell id="jApE_V955L-DPxymgC2c-14" value="获取socket，发送回复包" style="whiteSpace=wrap;html=1;fillColor=#ffe6cc;strokeColor=#d79b00;" vertex="1" parent="WIyWlLk6GJQsqaUBKTNV-1">
          <mxGeometry x="340" y="680" width="120" height="60" as="geometry" />
        </mxCell>
        <mxCell id="jApE_V955L-DPxymgC2c-18" style="edgeStyle=orthogonalEdgeStyle;rounded=0;orthogonalLoop=1;jettySize=auto;html=1;exitX=0.5;exitY=1;exitDx=0;exitDy=0;entryX=1;entryY=0.5;entryDx=0;entryDy=0;" edge="1" parent="WIyWlLk6GJQsqaUBKTNV-1" source="jApE_V955L-DPxymgC2c-17" target="jApE_V955L-DPxymgC2c-9">
          <mxGeometry relative="1" as="geometry" />
        </mxCell>
        <mxCell id="jApE_V955L-DPxymgC2c-17" value="重新尝试打开文件，获取文件句柄" style="rounded=0;whiteSpace=wrap;html=1;fillColor=#ffe6cc;strokeColor=#d79b00;" vertex="1" parent="WIyWlLk6GJQsqaUBKTNV-1">
          <mxGeometry x="520" y="430" width="120" height="60" as="geometry" />
        </mxCell>
        <mxCell id="jApE_V955L-DPxymgC2c-19" value="no" style="text;html=1;strokeColor=none;fillColor=none;align=center;verticalAlign=middle;whiteSpace=wrap;rounded=0;" vertex="1" parent="WIyWlLk6GJQsqaUBKTNV-1">
          <mxGeometry x="500" y="370" width="60" height="30" as="geometry" />
        </mxCell>
        <mxCell id="jApE_V955L-DPxymgC2c-20" value="返回错误回复包" style="rounded=0;whiteSpace=wrap;html=1;fillColor=#ffe6cc;strokeColor=#d79b00;" vertex="1" parent="WIyWlLk6GJQsqaUBKTNV-1">
          <mxGeometry x="180" y="680" width="120" height="60" as="geometry" />
        </mxCell>
        <mxCell id="jApE_V955L-DPxymgC2c-22" value="yes" style="text;html=1;strokeColor=none;fillColor=none;align=center;verticalAlign=middle;whiteSpace=wrap;rounded=0;" vertex="1" parent="WIyWlLk6GJQsqaUBKTNV-1">
          <mxGeometry x="250" y="270" width="60" height="30" as="geometry" />
        </mxCell>
      </root>
    </mxGraphModel>
  </diagram>
</mxfile>
